<mxfile host="app.diagrams.net" modified="2024-03-18T16:43:25.398Z" agent="Mozilla/5.0 (Windows NT 10.0; Win64; x64) AppleWebKit/537.36 (KHTML, like Gecko) Chrome/122.0.0.0 Safari/537.36" etag="HDD9UfAZhYGKBoncNX9P" version="24.0.7" type="github">
  <diagram name="Page-1" id="822b0af5-4adb-64df-f703-e8dfc1f81529">
    <mxGraphModel dx="1434" dy="746" grid="1" gridSize="10" guides="1" tooltips="1" connect="1" arrows="1" fold="1" page="1" pageScale="1" pageWidth="1100" pageHeight="850" background="none" math="0" shadow="0">
      <root>
        <mxCell id="0" />
        <mxCell id="1" parent="0" />
        <mxCell id="7d933b09d9755ecc-39" style="edgeStyle=none;rounded=0;html=1;exitX=1;exitY=0.5;labelBackgroundColor=none;startFill=0;endArrow=block;endFill=1;strokeColor=#0000FF;strokeWidth=1;fontFamily=Verdana;fontSize=12;entryX=-0.046;entryY=0.541;entryDx=0;entryDy=0;entryPerimeter=0;" parent="1" source="7d933b09d9755ecc-32" target="Gc3_FamApXj_eERZc7SU-3" edge="1">
          <mxGeometry relative="1" as="geometry" />
        </mxCell>
        <mxCell id="Gc3_FamApXj_eERZc7SU-1" value="" style="verticalLabelPosition=bottom;aspect=fixed;html=1;verticalAlign=top;strokeColor=none;shape=mxgraph.citrix.tower_server;rounded=0;shadow=0;comic=0;fontFamily=Verdana;" vertex="1" parent="1">
          <mxGeometry x="656" y="280" width="65" height="85" as="geometry" />
        </mxCell>
        <mxCell id="Gc3_FamApXj_eERZc7SU-2" value="" style="verticalLabelPosition=bottom;aspect=fixed;html=1;verticalAlign=top;strokeColor=none;shape=mxgraph.citrix.tower_server;rounded=0;shadow=0;comic=0;fontFamily=Verdana;" vertex="1" parent="1">
          <mxGeometry x="656" y="400" width="65" height="85" as="geometry" />
        </mxCell>
        <mxCell id="Gc3_FamApXj_eERZc7SU-3" value="" style="verticalLabelPosition=bottom;aspect=fixed;html=1;verticalAlign=top;strokeColor=none;shape=mxgraph.citrix.tower_server;rounded=0;shadow=0;comic=0;fontFamily=Verdana;" vertex="1" parent="1">
          <mxGeometry x="390" y="276" width="65" height="85" as="geometry" />
        </mxCell>
        <mxCell id="Gc3_FamApXj_eERZc7SU-4" value="" style="group" vertex="1" connectable="0" parent="1">
          <mxGeometry x="30" y="210" width="142" height="89" as="geometry" />
        </mxCell>
        <mxCell id="7d933b09d9755ecc-32" value="" style="ellipse;whiteSpace=wrap;html=1;rounded=0;shadow=0;comic=0;strokeWidth=1;fontFamily=Verdana;" parent="Gc3_FamApXj_eERZc7SU-4" vertex="1">
          <mxGeometry width="142" height="89" as="geometry" />
        </mxCell>
        <mxCell id="7d933b09d9755ecc-33" value="Users" style="verticalLabelPosition=bottom;aspect=fixed;html=1;verticalAlign=top;strokeColor=none;shape=mxgraph.citrix.users;rounded=0;shadow=0;comic=0;fontFamily=Verdana;" parent="Gc3_FamApXj_eERZc7SU-4" vertex="1">
          <mxGeometry x="37.75" y="10" width="64.5" height="55" as="geometry" />
        </mxCell>
        <mxCell id="Gc3_FamApXj_eERZc7SU-6" value="https://archiprod.abacospa.it/InteractiveDashboard" style="text;html=1;align=center;verticalAlign=middle;resizable=0;points=[];autosize=1;strokeColor=none;fillColor=none;fontSize=14;" vertex="1" parent="1">
          <mxGeometry x="5" y="160" width="340" height="30" as="geometry" />
        </mxCell>
        <mxCell id="Gc3_FamApXj_eERZc7SU-11" value="" style="group" vertex="1" connectable="0" parent="1">
          <mxGeometry x="20" y="340" width="190" height="250" as="geometry" />
        </mxCell>
        <mxCell id="7d933b09d9755ecc-15" value="" style="ellipse;whiteSpace=wrap;html=1;rounded=0;shadow=0;comic=0;strokeWidth=1;fontFamily=Verdana;" parent="Gc3_FamApXj_eERZc7SU-11" vertex="1">
          <mxGeometry width="190" height="250" as="geometry" />
        </mxCell>
        <mxCell id="Gc3_FamApXj_eERZc7SU-7" value="" style="shape=image;html=1;verticalAlign=top;verticalLabelPosition=bottom;labelBackgroundColor=#ffffff;imageAspect=0;aspect=fixed;image=https://cdn3.iconfinder.com/data/icons/document-icons-2/30/647719-word-128.png" vertex="1" parent="Gc3_FamApXj_eERZc7SU-11">
          <mxGeometry x="60" y="16" width="68" height="68" as="geometry" />
        </mxCell>
        <mxCell id="Gc3_FamApXj_eERZc7SU-8" value="" style="verticalLabelPosition=bottom;aspect=fixed;html=1;verticalAlign=top;strokeColor=none;shape=mxgraph.citrix.tower_server;rounded=0;shadow=0;comic=0;fontFamily=Verdana;" vertex="1" parent="Gc3_FamApXj_eERZc7SU-11">
          <mxGeometry x="62.5" y="151.5" width="65" height="85" as="geometry" />
        </mxCell>
        <mxCell id="Gc3_FamApXj_eERZc7SU-9" value="AddIn Word&lt;div&gt;&lt;br&gt;&lt;div&gt;Gestione Esiti&lt;/div&gt;&lt;/div&gt;" style="text;html=1;align=center;verticalAlign=middle;resizable=0;points=[];autosize=1;strokeColor=none;fillColor=none;" vertex="1" parent="Gc3_FamApXj_eERZc7SU-11">
          <mxGeometry x="42" y="84" width="100" height="60" as="geometry" />
        </mxCell>
        <mxCell id="Gc3_FamApXj_eERZc7SU-12" value="https://archiprod.abacospa.it/ArchiflowService" style="text;html=1;align=center;verticalAlign=middle;resizable=0;points=[];autosize=1;strokeColor=none;fillColor=none;fontSize=14;" vertex="1" parent="1">
          <mxGeometry x="10" y="605.5" width="310" height="30" as="geometry" />
        </mxCell>
        <mxCell id="Gc3_FamApXj_eERZc7SU-13" style="edgeStyle=none;rounded=0;html=1;exitX=0.995;exitY=0.476;labelBackgroundColor=none;startFill=0;endArrow=block;endFill=1;strokeColor=#0000FF;strokeWidth=1;fontFamily=Verdana;fontSize=12;exitDx=0;exitDy=0;exitPerimeter=0;entryX=-0.046;entryY=0.565;entryDx=0;entryDy=0;entryPerimeter=0;" edge="1" parent="1" source="7d933b09d9755ecc-15" target="Gc3_FamApXj_eERZc7SU-3">
          <mxGeometry relative="1" as="geometry">
            <mxPoint x="182" y="231" as="sourcePoint" />
            <mxPoint x="310" y="360" as="targetPoint" />
          </mxGeometry>
        </mxCell>
        <mxCell id="Gc3_FamApXj_eERZc7SU-14" value="Apache Load Balancer&lt;div&gt;&lt;br&gt;&lt;/div&gt;&lt;div&gt;https://archiprod.abacospa.it/balancer-manager&lt;br&gt;&lt;/div&gt;" style="text;html=1;align=center;verticalAlign=middle;resizable=0;points=[];autosize=1;strokeColor=none;fillColor=none;" vertex="1" parent="1">
          <mxGeometry x="287.5" y="205" width="270" height="60" as="geometry" />
        </mxCell>
        <mxCell id="Gc3_FamApXj_eERZc7SU-16" value="&lt;span style=&quot;font-size:11.0pt;font-family:&amp;quot;Calibri&amp;quot;,sans-serif;&lt;br/&gt;mso-ascii-theme-font:minor-latin;mso-fareast-font-family:Calibri;mso-fareast-theme-font:&lt;br/&gt;minor-latin;mso-hansi-theme-font:minor-latin;mso-bidi-font-family:&amp;quot;Times New Roman&amp;quot;;&lt;br/&gt;mso-bidi-theme-font:minor-bidi;mso-ansi-language:IT;mso-fareast-language:EN-US;&lt;br/&gt;mso-bidi-language:AR-SA&quot;&gt;ARCHIWCFWF01&lt;/span&gt;&lt;span style=&quot;font-family: Calibri, sans-serif; font-size: 11pt; background-color: initial;&quot;&gt;PW&lt;/span&gt;" style="text;html=1;align=center;verticalAlign=middle;resizable=0;points=[];autosize=1;strokeColor=none;fillColor=none;" vertex="1" parent="1">
          <mxGeometry x="618.5" y="120" width="140" height="30" as="geometry" />
        </mxCell>
        <mxCell id="Gc3_FamApXj_eERZc7SU-17" value="&lt;span style=&quot;font-size:11.0pt;font-family:&amp;quot;Calibri&amp;quot;,sans-serif;&lt;br/&gt;mso-ascii-theme-font:minor-latin;mso-fareast-font-family:Calibri;mso-fareast-theme-font:&lt;br/&gt;minor-latin;mso-hansi-theme-font:minor-latin;mso-bidi-font-family:&amp;quot;Times New Roman&amp;quot;;&lt;br/&gt;mso-bidi-theme-font:minor-bidi;mso-ansi-language:IT;mso-fareast-language:EN-US;&lt;br/&gt;mso-bidi-language:AR-SA&quot;&gt;ARCHIWCFWF02&lt;/span&gt;&lt;span style=&quot;font-family: Calibri, sans-serif; font-size: 11pt; background-color: initial;&quot;&gt;PW&lt;/span&gt;" style="text;html=1;align=center;verticalAlign=middle;resizable=0;points=[];autosize=1;strokeColor=none;fillColor=none;" vertex="1" parent="1">
          <mxGeometry x="623" y="250" width="140" height="30" as="geometry" />
        </mxCell>
        <mxCell id="Gc3_FamApXj_eERZc7SU-18" value="&lt;span style=&quot;font-size:11.0pt;font-family:&amp;quot;Calibri&amp;quot;,sans-serif;&lt;br/&gt;mso-ascii-theme-font:minor-latin;mso-fareast-font-family:Calibri;mso-fareast-theme-font:&lt;br/&gt;minor-latin;mso-hansi-theme-font:minor-latin;mso-bidi-font-family:&amp;quot;Times New Roman&amp;quot;;&lt;br/&gt;mso-bidi-theme-font:minor-bidi;mso-ansi-language:IT;mso-fareast-language:EN-US;&lt;br/&gt;mso-bidi-language:AR-SA&quot;&gt;ARCHIWCFWF03&lt;/span&gt;&lt;span style=&quot;font-family: Calibri, sans-serif; font-size: 11pt; background-color: initial;&quot;&gt;PW&lt;/span&gt;" style="text;html=1;align=center;verticalAlign=middle;resizable=0;points=[];autosize=1;strokeColor=none;fillColor=none;" vertex="1" parent="1">
          <mxGeometry x="623" y="370" width="140" height="30" as="geometry" />
        </mxCell>
        <mxCell id="7d933b09d9755ecc-9" value="" style="verticalLabelPosition=bottom;aspect=fixed;html=1;verticalAlign=top;strokeColor=none;shape=mxgraph.citrix.tower_server;rounded=0;shadow=0;comic=0;fontFamily=Verdana;" parent="1" vertex="1">
          <mxGeometry x="656" y="152.5" width="65" height="85" as="geometry" />
        </mxCell>
        <mxCell id="Gc3_FamApXj_eERZc7SU-20" value="" style="endArrow=classic;startArrow=classic;html=1;rounded=0;entryX=-0.031;entryY=0.571;entryDx=0;entryDy=0;entryPerimeter=0;exitX=0.985;exitY=0.518;exitDx=0;exitDy=0;exitPerimeter=0;" edge="1" parent="1" source="Gc3_FamApXj_eERZc7SU-3" target="7d933b09d9755ecc-9">
          <mxGeometry width="50" height="50" relative="1" as="geometry">
            <mxPoint x="550" y="460" as="sourcePoint" />
            <mxPoint x="600" y="410" as="targetPoint" />
          </mxGeometry>
        </mxCell>
        <mxCell id="Gc3_FamApXj_eERZc7SU-21" value="" style="endArrow=classic;startArrow=classic;html=1;rounded=0;entryX=-0.015;entryY=0.612;entryDx=0;entryDy=0;entryPerimeter=0;exitX=0.954;exitY=0.553;exitDx=0;exitDy=0;exitPerimeter=0;" edge="1" parent="1" source="Gc3_FamApXj_eERZc7SU-3" target="Gc3_FamApXj_eERZc7SU-1">
          <mxGeometry width="50" height="50" relative="1" as="geometry">
            <mxPoint x="464" y="330" as="sourcePoint" />
            <mxPoint x="664" y="211" as="targetPoint" />
          </mxGeometry>
        </mxCell>
        <mxCell id="Gc3_FamApXj_eERZc7SU-22" value="" style="endArrow=classic;startArrow=classic;html=1;rounded=0;entryX=0.046;entryY=0.588;entryDx=0;entryDy=0;entryPerimeter=0;exitX=0.969;exitY=0.588;exitDx=0;exitDy=0;exitPerimeter=0;" edge="1" parent="1" source="Gc3_FamApXj_eERZc7SU-3" target="Gc3_FamApXj_eERZc7SU-2">
          <mxGeometry width="50" height="50" relative="1" as="geometry">
            <mxPoint x="474" y="340" as="sourcePoint" />
            <mxPoint x="674" y="221" as="targetPoint" />
          </mxGeometry>
        </mxCell>
        <mxCell id="Gc3_FamApXj_eERZc7SU-23" value="Web&lt;div&gt;Web Service&lt;/div&gt;&lt;div&gt;Process&lt;/div&gt;" style="text;html=1;align=center;verticalAlign=middle;whiteSpace=wrap;rounded=0;" vertex="1" parent="1">
          <mxGeometry x="636.5" y="500" width="104" height="60" as="geometry" />
        </mxCell>
        <mxCell id="Gc3_FamApXj_eERZc7SU-24" value="" style="image;html=1;image=img/lib/clip_art/computers/Database_128x128.png" vertex="1" parent="1">
          <mxGeometry x="925" y="200" width="80" height="80" as="geometry" />
        </mxCell>
        <mxCell id="Gc3_FamApXj_eERZc7SU-25" value="ARCHIDB01" style="text;html=1;align=center;verticalAlign=middle;resizable=0;points=[];autosize=1;strokeColor=none;fillColor=none;" vertex="1" parent="1">
          <mxGeometry x="920" y="165" width="90" height="30" as="geometry" />
        </mxCell>
        <mxCell id="Gc3_FamApXj_eERZc7SU-26" value="Database ORACLE" style="text;html=1;align=center;verticalAlign=middle;resizable=0;points=[];autosize=1;strokeColor=none;fillColor=none;" vertex="1" parent="1">
          <mxGeometry x="900" y="280" width="130" height="30" as="geometry" />
        </mxCell>
        <mxCell id="Gc3_FamApXj_eERZc7SU-27" value="" style="verticalLabelPosition=bottom;aspect=fixed;html=1;verticalAlign=top;strokeColor=none;shape=mxgraph.citrix.tower_server;rounded=0;shadow=0;comic=0;fontFamily=Verdana;" vertex="1" parent="1">
          <mxGeometry x="932.5" y="417.5" width="65" height="85" as="geometry" />
        </mxCell>
        <mxCell id="Gc3_FamApXj_eERZc7SU-28" value="ARCHIINDEX" style="text;html=1;align=center;verticalAlign=middle;resizable=0;points=[];autosize=1;strokeColor=none;fillColor=none;" vertex="1" parent="1">
          <mxGeometry x="915" y="382.5" width="100" height="30" as="geometry" />
        </mxCell>
        <mxCell id="Gc3_FamApXj_eERZc7SU-29" value="" style="endArrow=classic;startArrow=classic;html=1;rounded=0;entryX=0;entryY=0.5;entryDx=0;entryDy=0;exitX=1;exitY=0.535;exitDx=0;exitDy=0;exitPerimeter=0;" edge="1" parent="1" source="7d933b09d9755ecc-9" target="Gc3_FamApXj_eERZc7SU-24">
          <mxGeometry width="50" height="50" relative="1" as="geometry">
            <mxPoint x="464" y="330" as="sourcePoint" />
            <mxPoint x="664" y="211" as="targetPoint" />
          </mxGeometry>
        </mxCell>
        <mxCell id="Gc3_FamApXj_eERZc7SU-30" value="" style="endArrow=classic;startArrow=classic;html=1;rounded=0;exitX=1;exitY=0.588;exitDx=0;exitDy=0;exitPerimeter=0;entryX=0;entryY=0.5;entryDx=0;entryDy=0;" edge="1" parent="1" source="Gc3_FamApXj_eERZc7SU-1" target="Gc3_FamApXj_eERZc7SU-24">
          <mxGeometry width="50" height="50" relative="1" as="geometry">
            <mxPoint x="731" y="208" as="sourcePoint" />
            <mxPoint x="870" y="290" as="targetPoint" />
          </mxGeometry>
        </mxCell>
        <mxCell id="Gc3_FamApXj_eERZc7SU-31" value="" style="endArrow=classic;startArrow=classic;html=1;rounded=0;entryX=0;entryY=0.5;entryDx=0;entryDy=0;exitX=1.046;exitY=0.565;exitDx=0;exitDy=0;exitPerimeter=0;" edge="1" parent="1" source="Gc3_FamApXj_eERZc7SU-2" target="Gc3_FamApXj_eERZc7SU-24">
          <mxGeometry width="50" height="50" relative="1" as="geometry">
            <mxPoint x="741" y="218" as="sourcePoint" />
            <mxPoint x="945" y="260" as="targetPoint" />
          </mxGeometry>
        </mxCell>
        <mxCell id="Gc3_FamApXj_eERZc7SU-32" value="" style="endArrow=classic;startArrow=classic;html=1;rounded=0;entryX=0.485;entryY=0.967;entryDx=0;entryDy=0;exitX=0.49;exitY=0.017;exitDx=0;exitDy=0;exitPerimeter=0;entryPerimeter=0;" edge="1" parent="1" source="Gc3_FamApXj_eERZc7SU-28" target="Gc3_FamApXj_eERZc7SU-26">
          <mxGeometry width="50" height="50" relative="1" as="geometry">
            <mxPoint x="751" y="228" as="sourcePoint" />
            <mxPoint x="955" y="270" as="targetPoint" />
          </mxGeometry>
        </mxCell>
      </root>
    </mxGraphModel>
  </diagram>
</mxfile>
